<?xml version="1.0" encoding="utf-8"?>
<!-- Generator: Adobe Illustrator 21.0.2, SVG Export Plug-In . SVG Version: 6.00 Build 0)  -->
<svg version="1.1" id="Layer_1" xmlns="http://www.w3.org/2000/svg" xmlns:xlink="http://www.w3.org/1999/xlink" x="0px" y="0px"
	 viewBox="0 0 256 128" style="enable-background:new 0 0 256 128;" xml:space="preserve">
<style type="text/css">
	.st0{fill:#EDEDED;stroke:#000000;stroke-miterlimit:10;}
	.st1{fill:none;stroke:#DBE0E0;stroke-width:1.75;stroke-miterlimit:10;}
	.st2{fill:#DBE0E0;}
	.st3{fill:none;stroke:#DBE0E0;stroke-width:2.7414;stroke-miterlimit:10;}
	.st4{fill:none;stroke:#DBE0E0;stroke-width:2.7267;stroke-miterlimit:10;}
	.st5{fill:none;stroke:#DBE0E0;stroke-width:1.5;stroke-miterlimit:10;}
</style>
<rect x="-8" y="-300" class="st0" width="279.3" height="275"/>
<rect class="st0" width="256" height="128"/>
<line class="st1" x1="25.8" y1="-20.2" x2="25.8" y2="-230.3"/>
<line class="st1" x1="230.2" y1="-230.3" x2="230.2" y2="-20.2"/>
<rect x="25" y="-231" class="st2" width="206" height="4.8"/>
<rect x="25.8" y="-202" class="st2" width="204.5" height="4.5"/>
<rect x="25.8" y="-171.9" class="st2" width="204.5" height="4.5"/>
<rect x="25.8" y="-141.7" class="st2" width="204.5" height="4.5"/>
<rect x="25.8" y="-111.6" class="st2" width="204.5" height="4.5"/>
<rect x="25.8" y="-81.4" class="st2" width="204.5" height="4.5"/>
<rect x="25.8" y="-51.3" class="st2" width="204.5" height="4.5"/>
<line class="st3" x1="150.6" y1="-229" x2="150.6" y2="-29.5"/>
<line class="st4" x1="191.7" y1="-229.7" x2="191.7" y2="-29.5"/>
<line class="st4" x1="211.7" y1="-229.7" x2="211.7" y2="-29.5"/>
<g>
	<rect x="24.3" y="-246.2" class="st2" width="31.7" height="5.8"/>
	<rect x="59.8" y="-246.2" class="st2" width="4.3" height="5.8"/>
	<rect x="85.1" y="-246.2" class="st2" width="2.2" height="5.8"/>
	<rect x="67.7" y="-246.2" class="st2" width="13.7" height="5.8"/>
	<rect x="150.6" y="-246.2" class="st2" width="12.9" height="5.8"/>
	<rect x="166.7" y="-246.2" class="st2" width="3.1" height="5.8"/>
	<rect x="191.7" y="-246.2" class="st2" width="3.3" height="5.8"/>
	<rect x="197.8" y="-246.2" class="st2" width="7" height="5.8"/>
	<rect x="211.7" y="-246.2" class="st2" width="17.2" height="5.8"/>
</g>
<g>
	<rect x="23.7" y="16.2" class="st2" width="31.7" height="3.1"/>
	<rect x="59.2" y="16.2" class="st2" width="4.3" height="3.1"/>
	<rect x="84.5" y="16.2" class="st2" width="2.2" height="3.1"/>
	<rect x="67.1" y="16.2" class="st2" width="13.7" height="3.1"/>
	<rect x="150" y="16.2" class="st2" width="12.9" height="3.1"/>
	<rect x="166.1" y="16.2" class="st2" width="3.1" height="3.1"/>
	<rect x="191.1" y="16.2" class="st2" width="3.3" height="3.1"/>
	<rect x="197.2" y="16.2" class="st2" width="7" height="3.1"/>
	<rect x="211.1" y="16.2" class="st2" width="17.2" height="3.1"/>
</g>
<rect x="25.2" y="24.9" class="st5" width="205.2" height="105.6"/>
<line class="st5" x1="25.2" y1="56.6" x2="230.4" y2="56.6"/>
<line class="st5" x1="25.2" y1="72.5" x2="230.4" y2="72.5"/>
<line class="st5" x1="25.2" y1="104.4" x2="230.4" y2="104.4"/>
<line class="st5" x1="25.2" y1="88.4" x2="230.4" y2="88.4"/>
<line class="st5" x1="25.2" y1="120.3" x2="230.4" y2="120.3"/>
<line class="st5" x1="25.2" y1="40.7" x2="230.4" y2="40.7"/>
<line class="st1" x1="150" y1="25.3" x2="150" y2="136.5"/>
<line class="st1" x1="191.1" y1="25.3" x2="191.1" y2="136.5"/>
<line class="st1" x1="211.1" y1="137.7" x2="211.1" y2="24.1"/>
<line class="st1" x1="230.4" y1="137.7" x2="230.4" y2="24.1"/>
</svg>
