<?xml version="1.0" encoding="utf-8"?>
<!-- Generator: Adobe Illustrator 20.0.0, SVG Export Plug-In . SVG Version: 6.00 Build 0)  -->
<svg version="1.1" id="Layer_2" xmlns="http://www.w3.org/2000/svg" xmlns:xlink="http://www.w3.org/1999/xlink" x="0px" y="0px"
	 viewBox="0 0 3618.6 3618.6" style="enable-background:new 0 0 3618.6 3618.6;" xml:space="preserve">
<style type="text/css">
	.st0{fill:#00D8FF;}
	.st1{fill:none;stroke:#00D8FF;stroke-width:149.8423;stroke-miterlimit:10;}
</style>
<circle class="st0" cx="1807.1" cy="1782.8" r="313.3"/>
<path class="st1" d="M1807.1,1145.9c420.5,0,811.2,60.4,1105.7,161.7c354.9,122.2,573.1,307.4,573.1,475.1
	c0,174.7-231.3,371.5-612.3,497.7c-288.1,95.4-667.3,145.3-1066.5,145.3c-409.3,0-796.8-46.8-1088.2-146.4
	c-368.6-126-590.7-325.3-590.7-496.7c0-166.4,208.4-350.1,558.3-472.1C982.2,1207.6,1382.5,1145.9,1807.1,1145.9L1807.1,1145.9z"/>
<path class="st1" d="M1252.8,1466.2c210-364.3,457.6-672.6,692.6-877c283.1-246.4,552.6-342.9,697.8-259.1
	c151.3,87.3,206.3,385.9,125.3,779.2c-61.3,297.3-207.5,650.6-406.9,996.5c-204.5,354.6-438.6,666.9-670.4,869.6
	c-293.3,256.4-576.9,349.2-725.4,263.6c-144.1-83.1-199.2-355.4-130.1-719.5C894,2211.5,1040.6,1834,1252.8,1466.2L1252.8,1466.2z"
	/>
<path class="st1" d="M1253.3,2106.5c-210.7-364-354.1-732.3-414-1038c-72.1-368.3-21.1-650,124-734c151.2-87.6,437.4,14,737.6,280.5
	c227,201.6,460,504.7,660.1,850.2c205.1,354.2,358.8,713.1,418.5,1015c75.7,382.2,14.4,674.2-134,760.1
	c-144,83.3-407.4-4.9-688.3-246.6C1720,2789.5,1466,2474,1253.3,2106.5L1253.3,2106.5z"/>
</svg>
