<?xml version="1.0" encoding="utf-8"?>
<!-- Generator: Adobe Illustrator 20.0.0, SVG Export Plug-In . SVG Version: 6.00 Build 0)  -->
<svg version="1.1" id="Layer_1" xmlns="http://www.w3.org/2000/svg" xmlns:xlink="http://www.w3.org/1999/xlink" x="0px" y="0px"
	 viewBox="0 0 256 256" style="enable-background:new 0 0 256 256;" xml:space="preserve">
<style type="text/css">
	.st0{fill:#EDEDED;stroke:#000000;stroke-miterlimit:10;}
	.st1{fill:none;stroke:#DBE0E0;stroke-width:1.75;stroke-miterlimit:10;}
	.st2{fill:#DBE0E0;}
	.st3{fill:none;stroke:#DBE0E0;stroke-width:2.7414;stroke-miterlimit:10;}
	.st4{fill:none;stroke:#DBE0E0;stroke-width:2.7267;stroke-miterlimit:10;}
</style>
<rect x="-8" y="-14.5" class="st0" width="279.3" height="275"/>
<line class="st1" x1="25.8" y1="265.3" x2="25.8" y2="55.2"/>
<line class="st1" x1="230.2" y1="55.2" x2="230.2" y2="265.3"/>
<rect x="25" y="54.5" class="st2" width="206" height="4.8"/>
<rect x="25.8" y="83.5" class="st2" width="204.5" height="4.5"/>
<rect x="25.8" y="113.6" class="st2" width="204.5" height="4.5"/>
<rect x="25.8" y="143.8" class="st2" width="204.5" height="4.5"/>
<rect x="25.8" y="173.9" class="st2" width="204.5" height="4.5"/>
<rect x="25.8" y="204.1" class="st2" width="204.5" height="4.5"/>
<rect x="25.8" y="234.2" class="st2" width="204.5" height="4.5"/>
<line class="st3" x1="150.6" y1="56.5" x2="150.6" y2="256"/>
<line class="st4" x1="191.7" y1="55.8" x2="191.7" y2="256"/>
<line class="st4" x1="211.7" y1="55.8" x2="211.7" y2="256"/>
<g>
	<rect x="24.3" y="39.3" class="st2" width="31.7" height="5.8"/>
	<rect x="59.8" y="39.3" class="st2" width="4.3" height="5.8"/>
	<rect x="85.1" y="39.3" class="st2" width="2.2" height="5.8"/>
	<rect x="67.7" y="39.3" class="st2" width="13.7" height="5.8"/>
	<rect x="150.6" y="39.3" class="st2" width="12.9" height="5.8"/>
	<rect x="166.7" y="39.3" class="st2" width="3.1" height="5.8"/>
	<rect x="191.7" y="39.3" class="st2" width="3.3" height="5.8"/>
	<rect x="197.8" y="39.3" class="st2" width="7" height="5.8"/>
	<rect x="211.7" y="39.3" class="st2" width="17.2" height="5.8"/>
</g>
</svg>
